<svg id="Capa_1" enable-background="new 0 0 512 512" height="512" viewBox="0 0 512 512" width="512" xmlns="http://www.w3.org/2000/svg"><g><g><circle cx="263.064" cy="253.978" fill="#fd7b65" r="62.847"/></g><g><path d="m282.827 194.321c2.792 7.111 4.342 14.847 4.342 22.948 0 34.709-28.137 62.847-62.847 62.847-6.907 0-13.546-1.13-19.763-3.189 9.169 23.355 31.897 39.898 58.505 39.898 34.709 0 62.847-28.137 62.847-62.847 0-27.802-18.061-51.371-43.084-59.657z" fill="#fc534e"/></g><g><circle cx="327.77" cy="43.827" fill="#1690fb" r="20.544"/></g><g><path d="m333.527 24.107c1.798 3.053 2.834 6.609 2.834 10.408 0 11.346-9.198 20.544-20.544 20.544-1.999 0-3.929-.291-5.757-.824 3.571 6.064 10.163 10.136 17.71 10.136 11.346 0 20.544-9.198 20.544-20.544 0-9.346-6.244-17.23-14.787-19.72z" fill="#0571f9"/></g><g><circle cx="44.852" cy="310.561" fill="#fce25c" r="20.544"/></g><g><path d="m50.609 290.841c1.798 3.053 2.834 6.609 2.834 10.408 0 11.346-9.198 20.544-20.544 20.544-1.999 0-3.929-.291-5.757-.824 3.571 6.064 10.163 10.136 17.71 10.136 11.346 0 20.544-9.198 20.544-20.544 0-9.347-6.244-17.23-14.787-19.72z" fill="#fbd307"/></g><g><circle cx="418.821" cy="416.904" fill="#05e29a" r="20.544"/></g><g><path d="m424.577 397.184c1.798 3.053 2.834 6.609 2.834 10.408 0 11.346-9.198 20.544-20.544 20.544-1.999 0-3.929-.291-5.757-.824 3.571 6.064 10.163 10.136 17.71 10.136 11.346 0 20.544-9.198 20.544-20.544 0-9.347-6.244-17.23-14.787-19.72z" fill="#1dd08d"/></g><g><path fill="#1a535c" d="m463.579 265.575c-2.35-3.174-4.839-6.356-7.434-9.541 14.978-18.357 25.77-36.406 32.22-53.927 1.439-3.91-.563-8.244-4.472-9.683-3.908-1.44-8.244.564-9.683 4.472-5.611 15.244-15.176 31.247-28.115 47.454-17.526-19.362-39.293-38.663-64.3-57.055-3.444-30.575-9.234-58.648-17.192-83.262 3.26-.484 6.477-.903 9.643-1.245 33.801-3.645 78.209-.822 97.819 33.381 5.005 8.728 7.689 18.368 7.978 28.653.117 4.164 3.596 7.459 7.751 7.327 4.164-.117 7.444-3.587 7.327-7.751-.36-12.8-3.715-24.822-9.971-35.732-18.73-32.668-57.636-46.802-112.524-40.875-4.29.463-8.667 1.06-13.114 1.77-3.547-9.318-7.429-18.06-11.649-26.138 4.94-5.064 7.993-11.979 7.993-19.596 0-15.487-12.599-28.086-28.086-28.086-4.987 0-9.67 1.312-13.734 3.601-15.385-12.83-32.507-19.342-50.971-19.342-37.655 0-69.271 26.726-91.429 77.286-1.735 3.958-3.397 8.06-4.996 12.279-4.455-.712-8.84-1.31-13.137-1.774-54.885-5.93-93.794 8.208-112.524 40.875s-11.27 73.387 21.571 117.759c2.368 3.199 4.876 6.405 7.493 9.613-7.424 9.087-13.878 18.142-19.247 27.076-1.917-.415-3.904-.639-5.944-.639-15.486 0-28.086 12.599-28.086 28.086 0 10.683 5.997 19.99 14.8 24.737-1.995 17.488 1.15 33.624 9.413 48.036 15.948 27.816 46.52 42.195 89.135 42.193 7.432-.001 15.238-.438 23.389-1.319 4.3-.464 8.688-1.063 13.147-1.775 6.955 18.318 15.196 34.318 24.625 47.462 1.473 2.053 3.787 3.147 6.135 3.147 1.522 0 3.059-.46 4.39-1.415 3.385-2.428 4.16-7.139 1.732-10.525-8.282-11.544-15.592-25.508-21.859-41.471 25.496-5.416 53.048-14.49 81.432-26.775 28.369 12.252 55.884 21.28 81.334 26.699-1.215 3.11-2.467 6.15-3.762 9.104-13.646 31.139-38.189 68.257-77.613 68.257-12.783 0-24.925-3.977-36.088-11.822-3.406-2.395-8.112-1.574-10.507 1.834-2.395 3.409-1.574 8.113 1.834 10.508 13.753 9.664 28.813 14.564 44.762 14.564 37.655 0 69.271-26.726 91.429-77.286 1.742-3.974 3.41-8.092 5.014-12.328 11.394 1.833 22.287 2.867 32.564 3.073 3.627 11.316 14.245 19.532 26.749 19.532 15.486 0 28.086-12.599 28.086-28.086 0-.171-.01-.34-.013-.511 16.864-7.09 29.728-18.184 38.256-33.06 18.73-32.667 11.27-73.387-21.571-117.759zm-27.309-9.607c-14.495 16.25-32.219 32.571-52.601 48.411 1.215-15.678 1.844-31.853 1.844-48.379 0-16.608-.615-32.76-1.804-48.361 20.291 15.759 38.034 32.049 52.561 48.329zm-280.57.032c0-20.859 1.01-41.121 2.967-60.457 15.79-11.317 32.862-22.287 50.994-32.683 17.919-10.274 35.822-19.395 53.403-27.263 17.581 7.868 35.484 16.988 53.403 27.263 18.088 10.37 35.155 21.319 50.95 32.63 1.979 19.371 3.012 39.655 3.012 60.511 0 20.865-1.011 41.131-2.969 60.471-15.751 11.288-32.818 22.249-50.993 32.669-17.91 10.269-35.803 19.385-53.376 27.25-17.577-7.854-35.488-16.963-53.43-27.25-18.119-10.388-35.214-21.357-51.033-32.688-1.924-19.229-2.928-39.459-2.928-60.453zm-13.264 48.374c-20.3-15.765-38.051-32.062-52.584-48.348 14.521-16.268 32.267-32.585 52.606-48.391-1.214 15.674-1.843 31.844-1.843 48.366.001 16.602.622 32.762 1.821 48.373zm18.655-128.908c3.524-25.081 8.731-48.268 15.482-68.757 21.258 4.361 44.106 11.434 67.766 20.936-13.975 6.658-28.081 14.044-42.18 22.128-14.357 8.231-28.076 16.833-41.068 25.693zm203.889-.06c-12.984-8.842-26.689-17.423-41.01-25.634-14.099-8.084-28.205-15.47-42.18-22.128 23.641-9.495 46.472-16.564 67.715-20.925 6.715 20.444 11.931 43.621 15.475 68.687zm-24.208-131.579c0 7.169-5.832 13.001-13.001 13.001s-13.001-5.832-13.001-13.001 5.832-13.001 13.001-13.001 13.001 5.832 13.001 13.001zm-155.32 39.514c13.646-31.138 38.188-68.256 77.613-68.256 14.397 0 27.908 5.043 40.242 14.972-2.301 4.072-3.621 8.768-3.621 13.77 0 15.487 12.599 28.086 28.086 28.086 2.428 0 4.785-.31 7.034-.892 3.417 6.614 6.61 13.757 9.574 21.365-25.462 5.415-52.973 14.477-81.313 26.742-28.353-12.27-55.877-21.335-81.349-26.749 1.205-3.088 2.448-6.106 3.734-9.038zm-110.778 154.11c-20.225-27.327-40.219-67.08-20.609-101.282 19.61-34.203 64.018-37.029 97.819-33.381 3.183.344 6.42.766 9.698 1.254-7.919 24.622-13.722 52.789-17.189 83.249-25.041 18.439-46.81 37.772-64.348 57.138-1.859-2.329-3.652-4.656-5.371-6.978zm-29.822 60.108c7.169 0 13.001 5.832 13.001 13.001s-5.832 13.001-13.001 13.001-13.001-5.832-13.001-13.001c0-7.168 5.832-13.001 13.001-13.001zm107.032 111.652c-33.798 3.653-78.209.822-97.819-33.38-6.367-11.105-8.932-23.604-7.678-37.228 14.775-.8 26.551-13.07 26.551-28.042 0-8.016-3.381-15.253-8.786-20.376 4.51-7.435 9.828-14.968 15.877-22.542 17.536 19.373 39.317 38.685 64.342 57.087 3.466 30.582 9.278 58.66 17.204 83.227-3.276.488-6.51.91-9.691 1.254zm24.623-3.907c-6.754-20.433-11.964-43.584-15.482-68.795 13.021 8.872 26.767 17.481 41.134 25.718 14.112 8.091 28.225 15.47 42.202 22.119-23.693 9.517-46.571 16.597-67.854 20.958zm105.321-20.967c13.962-6.653 28.056-14.033 42.142-22.109 14.281-8.188 28.015-16.794 41.066-25.681-3.522 25.059-8.723 48.227-15.466 68.702-21.212-4.361-44.055-11.415-67.742-20.912zm136.993 45.568c-7.169 0-13.001-5.832-13.001-13.001s5.832-13.001 13.001-13.001 13.001 5.832 13.001 13.001-5.832 13.001-13.001 13.001zm53.243-54.074c-6.588 11.49-16.51 20.227-29.542 26.034-4.989-7.834-13.745-13.046-23.701-13.046-13.231 0-24.348 9.2-27.307 21.537-8.545-.209-17.554-1.029-26.954-2.436 7.908-24.601 13.706-52.738 17.171-83.165 17.551-12.893 33.557-26.251 47.529-39.724 6.032-5.816 11.656-11.612 16.882-17.384 1.838 2.304 3.612 4.606 5.312 6.903 20.226 27.326 40.22 67.079 20.61 101.281z"/><path fill="#1a535c" d="m263.065 324.367c38.812 0 70.388-31.577 70.388-70.389s-31.576-70.388-70.388-70.388c-9.432 0-18.591 1.836-27.223 5.459-3.841 1.613-5.648 6.033-4.036 9.874s6.03 5.646 9.873 4.036c6.774-2.843 13.97-4.285 21.386-4.285 30.495 0 55.304 24.81 55.304 55.304 0 30.496-24.81 55.305-55.304 55.305-30.495 0-55.305-24.81-55.305-55.305 0-11.285 3.375-22.137 9.761-31.384 2.367-3.427 1.507-8.125-1.92-10.492-3.428-2.365-8.125-1.505-10.492 1.921-8.134 11.778-12.433 25.594-12.433 39.956 0 38.812 31.576 70.388 70.389 70.388z"/></g></g></svg>